<svg id="visual" viewBox="0 0 960 300" width="960" height="300" xmlns="http://www.w3.org/2000/svg" xmlns:xlink="http://www.w3.org/1999/xlink" version="1.1"><rect x="0" y="0" width="960" height="300" fill="#202731"></rect><path d="M0 59L20 61.2C40 63.3 80 67.7 120 80.7C160 93.7 200 115.3 240 125.3C280 135.3 320 133.7 360 123.7C400 113.7 440 95.3 480 93.7C520 92 560 107 600 110.2C640 113.3 680 104.7 720 99.5C760 94.3 800 92.7 840 99.2C880 105.7 920 120.3 940 127.7L960 135L960 0L940 0C920 0 880 0 840 0C800 0 760 0 720 0C680 0 640 0 600 0C560 0 520 0 480 0C440 0 400 0 360 0C320 0 280 0 240 0C200 0 160 0 120 0C80 0 40 0 20 0L0 0Z" fill="#ff6f61"></path><path d="M0 37L20 42C40 47 80 57 120 74.3C160 91.7 200 116.3 240 116.8C280 117.3 320 93.7 360 80.5C400 67.3 440 64.7 480 69C520 73.3 560 84.7 600 96.5C640 108.3 680 120.7 720 121.5C760 122.3 800 111.7 840 102.2C880 92.7 920 84.3 940 80.2L960 76L960 0L940 0C920 0 880 0 840 0C800 0 760 0 720 0C680 0 640 0 600 0C560 0 520 0 480 0C440 0 400 0 360 0C320 0 280 0 240 0C200 0 160 0 120 0C80 0 40 0 20 0L0 0Z" fill="#f96759"></path><path d="M0 36L20 37.3C40 38.7 80 41.3 120 37.2C160 33 200 22 240 24.8C280 27.7 320 44.3 360 61C400 77.7 440 94.3 480 93.7C520 93 560 75 600 63.7C640 52.3 680 47.7 720 42.3C760 37 800 31 840 32.7C880 34.3 920 43.7 940 48.3L960 53L960 0L940 0C920 0 880 0 840 0C800 0 760 0 720 0C680 0 640 0 600 0C560 0 520 0 480 0C440 0 400 0 360 0C320 0 280 0 240 0C200 0 160 0 120 0C80 0 40 0 20 0L0 0Z" fill="#f46051"></path><path d="M0 56L20 51.7C40 47.3 80 38.7 120 32.7C160 26.7 200 23.3 240 23.5C280 23.7 320 27.3 360 27.5C400 27.7 440 24.3 480 20.5C520 16.7 560 12.3 600 22.3C640 32.3 680 56.7 720 69.2C760 81.7 800 82.3 840 73.7C880 65 920 47 940 38L960 29L960 0L940 0C920 0 880 0 840 0C800 0 760 0 720 0C680 0 640 0 600 0C560 0 520 0 480 0C440 0 400 0 360 0C320 0 280 0 240 0C200 0 160 0 120 0C80 0 40 0 20 0L0 0Z" fill="#ee5849"></path><path d="M0 31L20 30.7C40 30.3 80 29.7 120 38.8C160 48 200 67 240 72.2C280 77.3 320 68.7 360 68.7C400 68.7 440 77.3 480 79.8C520 82.3 560 78.7 600 72.7C640 66.7 680 58.3 720 45.8C760 33.3 800 16.7 840 21.5C880 26.3 920 52.7 940 65.8L960 79L960 0L940 0C920 0 880 0 840 0C800 0 760 0 720 0C680 0 640 0 600 0C560 0 520 0 480 0C440 0 400 0 360 0C320 0 280 0 240 0C200 0 160 0 120 0C80 0 40 0 20 0L0 0Z" fill="#e85041"></path><path d="M0 12L20 18.7C40 25.3 80 38.7 120 42C160 45.3 200 38.7 240 32.7C280 26.7 320 21.3 360 16.2C400 11 440 6 480 4.3C520 2.7 560 4.3 600 9C640 13.7 680 21.3 720 22.2C760 23 800 17 840 15.7C880 14.3 920 17.7 940 19.3L960 21L960 0L940 0C920 0 880 0 840 0C800 0 760 0 720 0C680 0 640 0 600 0C560 0 520 0 480 0C440 0 400 0 360 0C320 0 280 0 240 0C200 0 160 0 120 0C80 0 40 0 20 0L0 0Z" fill="#e34839"></path><path d="M0 13L20 15.3C40 17.7 80 22.3 120 21.5C160 20.7 200 14.3 240 16.3C280 18.3 320 28.7 360 31C400 33.3 440 27.7 480 23.8C520 20 560 18 600 14.7C640 11.3 680 6.7 720 4.2C760 1.7 800 1.3 840 6.2C880 11 920 21 940 26L960 31L960 0L940 0C920 0 880 0 840 0C800 0 760 0 720 0C680 0 640 0 600 0C560 0 520 0 480 0C440 0 400 0 360 0C320 0 280 0 240 0C200 0 160 0 120 0C80 0 40 0 20 0L0 0Z" fill="#dd3f31"></path></svg>